# xmcd CD database file
#
# Track frame offsets:
#	150
#	19745
#	42214
#	65819
#	91148
#	112473
#	133894
#	156236
#	182692
#	201035
#	222963
#
# Disc length: 3239 seconds
#
# Revision: 1
# Processed by: cddbd v1.5.1PL0 Copyright (c) Steve Scherf et al.
# Submitted via: CDex 1.51
#
DISCID=a40ca50b
DTITLE=Various Artist - Cafe Heaven
DYEAR=2004
DGENRE=New Age
TTITLE0=Journey From Hell To Heaven
TTITLE1=Sher-E-Punjab
TTITLE2=Pray For Moksha
TTITLE3=Badmash Bombay
TTITLE4=Magical Arab
TTITLE5=Rhythmic Chants
TTITLE6=Peaceful Life
TTITLE7=Just Desserts
TTITLE8=Good Morning Buddha
TTITLE9=Parmanent Kashmir
TTITLE10=Death Of Devil
EXTD=YEAR: 2004
EXTT0=
EXTT1=
EXTT2=
EXTT3=
EXTT4=
EXTT5=
EXTT6=
EXTT7=
EXTT8=
EXTT9=
EXTT10=
PLAYORDER=
